<svg width="115" height="20" viewBox="0 0 115 20" fill="none" xmlns="http://www.w3.org/2000/svg">
<path d="M92.6841 17.2511C92.2556 16.7604 92.0361 16.1139 92.0747 15.4559C92.0714 15.0414 92.1514 14.6306 92.3096 14.2491C92.4654 13.8857 92.7205 13.5765 93.044 13.3591C93.3975 13.1239 93.8126 13.0055 94.2336 13.0197C94.6372 13.0092 95.0352 13.1192 95.3791 13.3365C95.6949 13.5433 95.949 13.8356 96.1134 14.1813C96.2788 14.5422 96.3641 14.9363 96.3631 15.3353C96.3671 15.4447 96.3273 15.551 96.2529 15.6294C96.1738 15.7117 96.0643 15.7556 95.9519 15.7501H92.8824C92.9118 16.1314 93.0764 16.4884 93.345 16.7533C93.6581 17.0048 94.0496 17.1308 94.4465 17.1078C94.6667 17.1127 94.8865 17.0873 95.1 17.0323C95.292 16.9875 95.4772 16.9165 95.6508 16.8212C95.7041 16.8098 95.7591 16.8098 95.8123 16.8212C95.905 16.8181 95.995 16.8534 96.062 16.9192C96.1347 16.9831 96.1752 17.0774 96.1722 17.1757C96.1619 17.3251 96.0712 17.4561 95.9372 17.5151C95.4656 17.8044 94.9219 17.946 94.3731 17.9224C93.7445 17.9446 93.1344 17.7021 92.6841 17.2511ZM95.5333 15.0713C95.5261 14.8032 95.4474 14.5423 95.3057 14.317C95.1829 14.1266 95.0131 13.973 94.8137 13.872C94.626 13.7784 94.4202 13.7294 94.2115 13.7287C94.0028 13.7286 93.7968 13.7776 93.6094 13.872C93.4099 13.973 93.2401 14.1266 93.1174 14.317C92.9802 14.544 92.9042 14.8043 92.8971 15.0713H95.5333Z" fill="#394FB6"/>
<path d="M106.372 16.7137V13.972H105.733C105.689 13.973 105.647 13.9574 105.615 13.9285C105.583 13.895 105.565 13.8511 105.563 13.8052C105.564 13.7465 105.594 13.692 105.644 13.6602L106.865 12.4852C106.902 12.4411 106.955 12.4126 107.012 12.4054C107.059 12.4035 107.105 12.4221 107.137 12.4562C107.168 12.4904 107.186 12.5338 107.189 12.5795V13.3048H108.196C108.289 13.3001 108.38 13.3343 108.446 13.3991C108.514 13.4636 108.551 13.5529 108.549 13.6457C108.548 13.7379 108.512 13.8264 108.446 13.8923C108.38 13.957 108.289 13.9913 108.196 13.9866H107.189V16.6556C107.189 16.8877 107.24 17.0328 107.35 17.0908C107.479 17.1593 107.624 17.1919 107.77 17.1851C107.889 17.1861 108.008 17.169 108.123 17.1343H108.203H108.306C108.482 17.1417 108.622 17.2804 108.63 17.4535C108.628 17.5879 108.548 17.7093 108.424 17.7654C108.193 17.8678 107.942 17.9221 107.689 17.9249C106.806 17.8814 106.372 17.4897 106.372 16.7137Z" fill="#394FB6"/>
<path d="M56.6901 18.6705C56.4628 18.4471 56.3377 18.1402 56.344 17.8219V1.97813C56.3393 1.51474 56.5229 1.06924 56.853 0.743355C57.1713 0.411145 57.6142 0.22691 58.0746 0.235218H58.9551C59.3039 0.233743 59.6435 0.346167 59.9222 0.555344C60.2075 0.757708 60.4327 1.03338 60.5737 1.35312L66.6104 16.3737L72.6421 1.35312C72.7848 1.03442 73.0096 0.759164 73.2936 0.555344C73.5742 0.346116 73.9155 0.23375 74.2658 0.235218H75.1412C75.6019 0.225653 76.0453 0.410091 76.3628 0.743355C76.6929 1.06924 76.8765 1.51474 76.8718 1.97813V17.8219C76.8801 18.1396 76.7567 18.4466 76.5308 18.6705C76.3067 18.8968 75.9995 19.0217 75.6808 19.016C75.3577 19.0206 75.0462 18.8962 74.8155 18.6705C74.5781 18.4524 74.4448 18.1439 74.449 17.8219V2.73017L68.3054 17.9032C68.1669 18.2347 67.9309 18.5165 67.6284 18.7111C67.0094 19.1128 66.2115 19.1128 65.5925 18.7111C65.2886 18.5168 65.0508 18.2351 64.9104 17.9032L58.7617 2.73017V17.8219C58.7692 18.1424 58.6396 18.451 58.4054 18.6705C58.1747 18.8962 57.8632 19.0206 57.5401 19.016C57.2213 19.0223 56.9138 18.8973 56.6901 18.6705Z" fill="#394FB6"/>
<path d="M27.5175 19.1045C27.2868 18.8796 27.1598 18.5705 27.1662 18.2499V2.93886H21.665C21.3615 2.94594 21.0683 2.8296 20.8536 2.61691C20.6389 2.40423 20.5215 2.11374 20.5286 1.81304C20.5227 1.5111 20.64 1.21957 20.8541 1.0045C21.0639 0.783753 21.3591 0.662657 21.665 0.671877H35.0951C35.4028 0.669118 35.6988 0.789001 35.9164 1.00457C36.134 1.22014 36.255 1.51331 36.2522 1.81816C36.2554 2.12066 36.1297 2.41048 35.9061 2.61647C35.6868 2.82828 35.391 2.94437 35.0848 2.93886H29.6198V18.2499C29.6273 18.5728 29.4958 18.8835 29.2582 19.1045C29.024 19.3319 28.7079 19.4572 28.3801 19.4525C28.0565 19.4589 27.7445 19.333 27.5175 19.1045Z" fill="#394FB6"/>
<path d="M96.473 17.8073C96.4032 17.7212 96.3684 17.6061 96.3771 17.4897C96.378 17.394 96.4069 17.3014 96.4593 17.2263L97.7474 15.5063L96.4593 13.7244C96.4001 13.6465 96.3662 13.5481 96.3634 13.4455C96.3614 13.3319 96.4011 13.2226 96.473 13.1433C96.5448 13.0649 96.6404 13.0205 96.7402 13.0193C96.8589 13.0108 96.973 13.0723 97.0417 13.182L98.2065 14.8168L99.3714 13.182C99.4347 13.0736 99.5444 13.0116 99.6591 13.0193C99.7615 13.0177 99.8601 13.0623 99.9332 13.1433C100.006 13.2154 100.046 13.3206 100.043 13.43C100.042 13.5256 100.013 13.6182 99.9606 13.6934L98.645 15.4443L99.9469 17.2185C100.006 17.2929 100.038 17.3898 100.036 17.4897C100.039 17.6041 100.002 17.7153 99.9332 17.7996C99.8616 17.8878 99.7578 17.9336 99.6523 17.9235C99.5365 17.9267 99.4266 17.866 99.3577 17.7608L98.1791 16.1571L97.0554 17.7066C96.9814 17.8244 96.8611 17.8939 96.7334 17.8926C96.6398 17.9068 96.5453 17.8759 96.473 17.8073Z" fill="#394FB6"/>
<path d="M81.3051 17.283V17.4989C81.3038 17.5972 81.2581 17.6913 81.1772 17.762C81.0894 17.8283 80.9754 17.8644 80.8576 17.8632C80.7422 17.8647 80.6305 17.8285 80.546 17.762C80.4621 17.693 80.4159 17.5978 80.4182 17.4989V12.1692C80.4146 12.0682 80.4609 11.9704 80.546 11.8993C80.6277 11.8285 80.7405 11.7895 80.8576 11.7914C80.9776 11.7867 81.0942 11.826 81.1772 11.8993C81.265 11.9689 81.3118 12.0677 81.3051 12.1692V14.1931C81.7281 13.7938 82.3325 13.5656 82.967 13.5657C83.3689 13.5658 83.7634 13.6567 84.1096 13.8288C84.4796 14.0074 84.7837 14.2689 84.9885 14.5844C85.4362 15.3119 85.4362 16.1778 84.9885 16.9052C84.7837 17.2207 84.4796 17.4823 84.1096 17.6608C83.7634 17.833 83.3689 17.9238 82.967 17.924C82.33 17.9206 81.7252 17.6874 81.3051 17.283ZM83.9978 16.8243C84.5839 16.1797 84.5839 15.283 83.9978 14.6384C83.6939 14.377 83.2726 14.2372 82.8392 14.2539C82.561 14.2574 82.2876 14.3151 82.0402 14.4225C81.7781 14.5338 81.5425 14.6847 81.345 14.8678V16.5949C81.544 16.7766 81.7793 16.9273 82.0402 17.0402C82.2876 17.1476 82.561 17.2053 82.8392 17.2088C83.2726 17.2255 83.6939 17.0857 83.9978 16.8243Z" fill="#394FB6"/>
<path d="M38.3467 19.1049C38.1173 18.8797 37.992 18.5709 38.0004 18.2514V1.8982C37.9937 1.57448 38.1184 1.26161 38.3467 1.02943C38.5718 0.794062 38.8873 0.664074 39.2149 0.671705H45.5045C47.9541 0.671705 49.7905 1.16912 51.0136 2.16394C52.2138 3.11533 52.893 4.56835 52.8483 6.08872C52.8555 7.13152 52.5399 8.15155 51.9439 9.01186C51.3041 9.91721 50.3791 10.5875 49.3133 10.918C50.5549 11.209 51.5581 12.1104 51.9697 13.3046C52.4323 14.4851 52.6757 15.7385 52.6881 17.0045V18.231C52.6923 18.5508 52.5657 18.8587 52.337 19.0848C52.1083 19.3109 51.797 19.4361 51.4736 19.4319C51.1388 19.4488 50.8117 19.3287 50.5692 19.0998C50.3459 18.8735 50.2248 18.5675 50.2333 18.2514V17.4491C50.241 16.6202 50.1596 15.7927 49.9904 14.9808C49.8209 14.1999 49.4175 13.4876 48.8327 12.9366C48.0617 12.2871 47.0622 11.9656 46.0523 12.0423H40.4604V18.2514C40.466 18.5745 40.3326 18.8847 40.0935 19.1049C39.8611 19.3316 39.5465 19.4568 39.2201 19.4524C38.893 19.4604 38.577 19.3346 38.3467 19.1049ZM45.3442 9.76309C46.636 9.82866 47.9183 9.51387 49.0291 8.85855C49.9084 8.30489 50.427 7.33359 50.3935 6.30335C50.445 5.33497 49.9952 4.40708 49.1996 3.84015C48.4175 3.2746 47.0824 2.99012 45.1944 2.98671H40.4604V9.76309H45.3442Z" fill="#394FB6"/>
<path d="M101.816 17.6131C101.447 17.4154 101.148 17.1167 100.956 16.755C100.556 15.9427 100.556 15.0008 100.956 14.1884C101.148 13.8268 101.447 13.5281 101.816 13.3304C102.624 12.9146 103.595 12.9146 104.403 13.3304C104.769 13.5293 105.065 13.8278 105.255 14.1884C105.665 14.9985 105.665 15.945 105.255 16.755C105.063 17.1167 104.764 17.4154 104.395 17.6131C103.587 18.0289 102.616 18.0289 101.808 17.6131H101.816ZM103.867 16.9752C104.12 16.8533 104.33 16.66 104.466 16.4209C104.632 16.1281 104.711 15.7972 104.695 15.4641C104.71 15.1311 104.631 14.8004 104.466 14.5074C104.327 14.2723 104.118 14.0821 103.867 13.9606C103.623 13.8408 103.352 13.7808 103.078 13.786C102.804 13.7824 102.534 13.8423 102.289 13.9606C102.038 14.0802 101.832 14.271 101.697 14.5074C101.536 14.8018 101.458 15.1315 101.469 15.4641C101.456 15.7969 101.535 16.1268 101.697 16.4209C101.829 16.661 102.036 16.8549 102.289 16.9752C102.531 17.1011 102.803 17.1639 103.078 17.1575C103.353 17.1639 103.625 17.1011 103.867 16.9752Z" fill="#394FB6"/>
<path d="M16.6428 19.0115C15.4393 19.0203 14.401 18.1851 14.1747 17.026C13.9522 15.8659 13.4187 14.7848 12.6289 13.8938C11.856 13.0295 10.7406 12.534 9.56827 12.534C8.39593 12.534 7.2805 13.0295 6.5076 13.8938C5.73803 14.7544 5.21683 15.8008 4.99787 16.925C4.79424 18.0657 3.81707 18.9192 2.63796 18.9862C1.41575 19.0562 0.323177 18.2442 0.0616425 17.0715C-0.0895925 16.4002 0.0447579 15.6975 0.433692 15.1255C0.822626 14.5535 1.43254 14.1616 2.1227 14.0403C3.46547 13.8283 4.69231 13.168 5.59558 12.1711C6.24871 11.4282 6.57018 10.4593 6.48783 9.48182C6.40548 8.50437 5.92621 7.6003 5.15761 6.97257C4.25846 6.25324 3.18749 5.76994 2.04541 5.56812C0.793116 5.33278 -0.0824716 4.21727 0.0061699 2.97012C0.0948114 1.72296 1.11974 0.737308 2.39322 0.674543C3.6667 0.611778 4.78727 1.49168 5.00303 2.72384C5.2318 3.99022 5.85665 5.15549 6.79099 6.05816C8.36846 7.51956 10.8385 7.50844 12.4022 6.0329C12.5491 5.89587 12.725 5.79236 12.9175 5.72978C13.3166 5.60756 13.7481 5.77893 13.948 6.13899C14.1658 6.49632 14.1015 6.95395 13.7934 7.24033C13.3142 7.69105 12.9748 8.26553 12.8144 8.89738C12.3976 10.3578 12.9528 11.9183 14.2056 12.8076C15.082 13.4769 16.1081 13.9323 17.1993 14.1363C18.4135 14.3778 19.2684 15.4487 19.2158 16.6623C19.1632 17.8758 18.2187 18.8719 16.9881 19.0115C16.8541 19.0216 16.7459 19.0115 16.6428 19.0115Z" fill="#394FB6"/>
<path d="M86.4679 19.6345C86.3951 19.56 86.3536 19.4597 86.3522 19.3546C86.3453 19.3057 86.3453 19.2561 86.3522 19.2072L86.9238 17.7337L85.3318 13.608C85.3217 13.5495 85.3217 13.4897 85.3318 13.4312C85.3329 13.3238 85.3744 13.221 85.4476 13.1438C85.5209 13.0645 85.6229 13.0193 85.7298 13.0186C85.8102 13.0195 85.8884 13.0452 85.9542 13.0923C86.0199 13.137 86.0704 13.2013 86.0989 13.2765L87.4593 16.7023L88.8414 13.2912C88.8942 13.1291 89.0428 13.0194 89.2105 13.0186C89.3178 13.0175 89.4205 13.063 89.4927 13.1438C89.5687 13.2192 89.6106 13.3232 89.6085 13.4312C89.6202 13.4821 89.6202 13.535 89.6085 13.5859L87.206 19.4798C87.1552 19.6434 87.0055 19.7539 86.837 19.7524C86.7019 19.789 86.5583 19.7431 86.4679 19.6345Z" fill="#394FB6"/>
<path d="M109.262 17.26C108.82 16.7721 108.594 16.1239 108.635 15.4641C108.631 15.0493 108.713 14.6383 108.874 14.2568C109.188 13.4912 109.936 12.9996 110.756 13.0192C111.167 13.0087 111.572 13.1188 111.922 13.3362C112.243 13.543 112.501 13.8355 112.669 14.1813C112.84 14.5412 112.927 14.9363 112.923 15.3358C112.927 15.4485 112.884 15.5579 112.804 15.6369C112.725 15.7159 112.616 15.7573 112.504 15.7508H109.419C109.446 16.1347 109.617 16.4937 109.897 16.7544C110.212 17.0075 110.608 17.1338 111.01 17.1091C111.237 17.1135 111.463 17.0882 111.683 17.0336C111.877 16.9866 112.065 16.9157 112.243 16.8223C112.297 16.8095 112.353 16.8095 112.407 16.8223C112.499 16.8186 112.589 16.8542 112.654 16.9204C112.728 16.9844 112.769 17.0787 112.766 17.177C112.758 17.3253 112.669 17.4568 112.534 17.5165C112.312 17.6442 112.077 17.7455 111.832 17.8184C111.542 17.8948 111.243 17.9303 110.943 17.924C110.317 17.9414 109.71 17.7018 109.262 17.26ZM112.153 15.0792C112.15 14.8104 112.069 14.5484 111.922 14.3247C111.797 14.1341 111.624 13.9805 111.421 13.8795C111.23 13.785 111.021 13.736 110.808 13.7361C110.598 13.7358 110.391 13.7849 110.203 13.8795C109.999 13.9783 109.826 14.1324 109.703 14.3247C109.561 14.551 109.481 14.8114 109.471 15.0792H112.153Z" fill="#394FB6"/>
<path d="M19.2179 2.85559C19.2179 4.30293 18.0445 5.47622 16.5972 5.47622C15.1499 5.47622 13.9766 4.30293 13.9766 2.85559C13.9766 1.40826 15.1499 0.234912 16.5972 0.234912C17.2935 0.230642 17.9626 0.505355 18.455 0.997758C18.9474 1.49016 19.2221 2.15924 19.2179 2.85559Z" fill="#394FB6"/>
<path d="M113.624 17.8217C113.569 17.7503 113.537 17.6552 113.536 17.556V12.173C113.536 12.0715 113.568 11.9739 113.624 11.9004C113.681 11.8289 113.759 11.7894 113.84 11.7914C113.923 11.7866 114.003 11.8264 114.061 11.9004C114.121 11.9707 114.154 12.0705 114.149 12.173V17.556C114.151 17.6558 114.119 17.752 114.061 17.8217C114 17.8886 113.921 17.9251 113.84 17.924C113.76 17.9254 113.683 17.8888 113.624 17.8217Z" fill="#394FB6"/>
</svg>

